# xmcd CD database file
#
# Track frame offsets:
#	150
#	19517
#	40042
#	59395
#
# Disc length: 1063 seconds
#
# Revision: 6
# Processed by: cddbd v1.5.1PL0 Copyright (c) Steve Scherf et al.
# Submitted via: CDex 1.51
#
DISCID=26042504
DTITLE=奥井雅美 - TRUST
DYEAR=2005
DGENRE=Anime
TTITLE0=TRUST
TTITLE1=A confession of TOKIO
TTITLE2=TRUST(instrumental)
TTITLE3=A confession of TOKIO(instrumental)
EXTD=YEAR: 2005
EXTT0=
EXTT1=
EXTT2=
EXTT3=
PLAYORDER=
